<mxfile host="app.diagrams.net" agent="Mozilla/5.0 (Windows NT 10.0; Win64; x64) AppleWebKit/537.36 (KHTML, like Gecko) Chrome/136.0.0.0 Safari/537.36" version="27.0.4">
  <diagram name="Page-1" id="fkTmz8UEqdB8mrhAM7at">
    <mxGraphModel dx="1042" dy="622" grid="0" gridSize="1" guides="1" tooltips="1" connect="1" arrows="1" fold="1" page="1" pageScale="1" pageWidth="850" pageHeight="1100" math="0" shadow="0">
      <root>
        <mxCell id="0" />
        <mxCell id="1" parent="0" />
        <mxCell id="XgYpCmmkQ7SpW7V8VuAg-2" value="" style="childLayout=tableLayout;recursiveResize=0;shadow=0;fillColor=none;strokeWidth=3;" vertex="1" parent="1">
          <mxGeometry x="400" y="160" width="320" height="322" as="geometry" />
        </mxCell>
        <mxCell id="XgYpCmmkQ7SpW7V8VuAg-18" style="shape=tableRow;horizontal=0;startSize=0;swimlaneHead=0;swimlaneBody=0;top=0;left=0;bottom=0;right=0;dropTarget=0;collapsible=0;recursiveResize=0;expand=0;fontStyle=0;fillColor=none;strokeColor=inherit;strokeWidth=3;" vertex="1" parent="XgYpCmmkQ7SpW7V8VuAg-2">
          <mxGeometry width="320" height="81" as="geometry" />
        </mxCell>
        <mxCell id="XgYpCmmkQ7SpW7V8VuAg-19" style="connectable=0;recursiveResize=0;strokeColor=inherit;fillColor=none;align=center;whiteSpace=wrap;html=1;strokeWidth=3;" vertex="1" parent="XgYpCmmkQ7SpW7V8VuAg-18">
          <mxGeometry width="80" height="81" as="geometry">
            <mxRectangle width="80" height="81" as="alternateBounds" />
          </mxGeometry>
        </mxCell>
        <mxCell id="XgYpCmmkQ7SpW7V8VuAg-20" style="connectable=0;recursiveResize=0;strokeColor=inherit;fillColor=none;align=center;whiteSpace=wrap;html=1;strokeWidth=3;" vertex="1" parent="XgYpCmmkQ7SpW7V8VuAg-18">
          <mxGeometry x="80" width="80" height="81" as="geometry">
            <mxRectangle width="80" height="81" as="alternateBounds" />
          </mxGeometry>
        </mxCell>
        <mxCell id="XgYpCmmkQ7SpW7V8VuAg-21" style="connectable=0;recursiveResize=0;strokeColor=inherit;fillColor=none;align=center;whiteSpace=wrap;html=1;strokeWidth=3;" vertex="1" parent="XgYpCmmkQ7SpW7V8VuAg-18">
          <mxGeometry x="160" width="80" height="81" as="geometry">
            <mxRectangle width="80" height="81" as="alternateBounds" />
          </mxGeometry>
        </mxCell>
        <mxCell id="XgYpCmmkQ7SpW7V8VuAg-22" style="connectable=0;recursiveResize=0;strokeColor=inherit;fillColor=none;align=center;whiteSpace=wrap;html=1;strokeWidth=3;" vertex="1" parent="XgYpCmmkQ7SpW7V8VuAg-18">
          <mxGeometry x="240" width="80" height="81" as="geometry">
            <mxRectangle width="80" height="81" as="alternateBounds" />
          </mxGeometry>
        </mxCell>
        <mxCell id="XgYpCmmkQ7SpW7V8VuAg-3" value="" style="shape=tableRow;horizontal=0;startSize=0;swimlaneHead=0;swimlaneBody=0;top=0;left=0;bottom=0;right=0;dropTarget=0;collapsible=0;recursiveResize=0;expand=0;fontStyle=0;fillColor=none;strokeColor=inherit;strokeWidth=3;" vertex="1" parent="XgYpCmmkQ7SpW7V8VuAg-2">
          <mxGeometry y="81" width="320" height="81" as="geometry" />
        </mxCell>
        <mxCell id="XgYpCmmkQ7SpW7V8VuAg-4" value="" style="connectable=0;recursiveResize=0;strokeColor=inherit;fillColor=none;align=center;whiteSpace=wrap;html=1;strokeWidth=3;" vertex="1" parent="XgYpCmmkQ7SpW7V8VuAg-3">
          <mxGeometry width="80" height="81" as="geometry">
            <mxRectangle width="80" height="81" as="alternateBounds" />
          </mxGeometry>
        </mxCell>
        <mxCell id="XgYpCmmkQ7SpW7V8VuAg-5" value="" style="connectable=0;recursiveResize=0;strokeColor=inherit;fillColor=none;align=center;whiteSpace=wrap;html=1;strokeWidth=3;" vertex="1" parent="XgYpCmmkQ7SpW7V8VuAg-3">
          <mxGeometry x="80" width="80" height="81" as="geometry">
            <mxRectangle width="80" height="81" as="alternateBounds" />
          </mxGeometry>
        </mxCell>
        <mxCell id="XgYpCmmkQ7SpW7V8VuAg-6" value="" style="connectable=0;recursiveResize=0;strokeColor=inherit;fillColor=none;align=center;whiteSpace=wrap;html=1;strokeWidth=3;" vertex="1" parent="XgYpCmmkQ7SpW7V8VuAg-3">
          <mxGeometry x="160" width="80" height="81" as="geometry">
            <mxRectangle width="80" height="81" as="alternateBounds" />
          </mxGeometry>
        </mxCell>
        <mxCell id="XgYpCmmkQ7SpW7V8VuAg-15" style="connectable=0;recursiveResize=0;strokeColor=inherit;fillColor=none;align=center;whiteSpace=wrap;html=1;strokeWidth=3;" vertex="1" parent="XgYpCmmkQ7SpW7V8VuAg-3">
          <mxGeometry x="240" width="80" height="81" as="geometry">
            <mxRectangle width="80" height="81" as="alternateBounds" />
          </mxGeometry>
        </mxCell>
        <mxCell id="XgYpCmmkQ7SpW7V8VuAg-7" style="shape=tableRow;horizontal=0;startSize=0;swimlaneHead=0;swimlaneBody=0;top=0;left=0;bottom=0;right=0;dropTarget=0;collapsible=0;recursiveResize=0;expand=0;fontStyle=0;fillColor=none;strokeColor=inherit;strokeWidth=3;" vertex="1" parent="XgYpCmmkQ7SpW7V8VuAg-2">
          <mxGeometry y="162" width="320" height="79" as="geometry" />
        </mxCell>
        <mxCell id="XgYpCmmkQ7SpW7V8VuAg-8" value="" style="connectable=0;recursiveResize=0;strokeColor=inherit;fillColor=none;align=center;whiteSpace=wrap;html=1;strokeWidth=3;" vertex="1" parent="XgYpCmmkQ7SpW7V8VuAg-7">
          <mxGeometry width="80" height="79" as="geometry">
            <mxRectangle width="80" height="79" as="alternateBounds" />
          </mxGeometry>
        </mxCell>
        <mxCell id="XgYpCmmkQ7SpW7V8VuAg-9" value="" style="connectable=0;recursiveResize=0;strokeColor=inherit;fillColor=none;align=center;whiteSpace=wrap;html=1;strokeWidth=3;" vertex="1" parent="XgYpCmmkQ7SpW7V8VuAg-7">
          <mxGeometry x="80" width="80" height="79" as="geometry">
            <mxRectangle width="80" height="79" as="alternateBounds" />
          </mxGeometry>
        </mxCell>
        <mxCell id="XgYpCmmkQ7SpW7V8VuAg-10" value="" style="connectable=0;recursiveResize=0;strokeColor=inherit;fillColor=none;align=center;whiteSpace=wrap;html=1;strokeWidth=3;" vertex="1" parent="XgYpCmmkQ7SpW7V8VuAg-7">
          <mxGeometry x="160" width="80" height="79" as="geometry">
            <mxRectangle width="80" height="79" as="alternateBounds" />
          </mxGeometry>
        </mxCell>
        <mxCell id="XgYpCmmkQ7SpW7V8VuAg-16" style="connectable=0;recursiveResize=0;strokeColor=inherit;fillColor=none;align=center;whiteSpace=wrap;html=1;strokeWidth=3;" vertex="1" parent="XgYpCmmkQ7SpW7V8VuAg-7">
          <mxGeometry x="240" width="80" height="79" as="geometry">
            <mxRectangle width="80" height="79" as="alternateBounds" />
          </mxGeometry>
        </mxCell>
        <mxCell id="XgYpCmmkQ7SpW7V8VuAg-11" style="shape=tableRow;horizontal=0;startSize=0;swimlaneHead=0;swimlaneBody=0;top=0;left=0;bottom=0;right=0;dropTarget=0;collapsible=0;recursiveResize=0;expand=0;fontStyle=0;fillColor=none;strokeColor=inherit;strokeWidth=3;" vertex="1" parent="XgYpCmmkQ7SpW7V8VuAg-2">
          <mxGeometry y="241" width="320" height="81" as="geometry" />
        </mxCell>
        <mxCell id="XgYpCmmkQ7SpW7V8VuAg-12" value="" style="connectable=0;recursiveResize=0;strokeColor=inherit;fillColor=none;align=center;whiteSpace=wrap;html=1;strokeWidth=3;" vertex="1" parent="XgYpCmmkQ7SpW7V8VuAg-11">
          <mxGeometry width="80" height="81" as="geometry">
            <mxRectangle width="80" height="81" as="alternateBounds" />
          </mxGeometry>
        </mxCell>
        <mxCell id="XgYpCmmkQ7SpW7V8VuAg-13" value="" style="connectable=0;recursiveResize=0;strokeColor=inherit;fillColor=none;align=center;whiteSpace=wrap;html=1;strokeWidth=3;" vertex="1" parent="XgYpCmmkQ7SpW7V8VuAg-11">
          <mxGeometry x="80" width="80" height="81" as="geometry">
            <mxRectangle width="80" height="81" as="alternateBounds" />
          </mxGeometry>
        </mxCell>
        <mxCell id="XgYpCmmkQ7SpW7V8VuAg-14" value="" style="connectable=0;recursiveResize=0;strokeColor=inherit;fillColor=none;align=center;whiteSpace=wrap;html=1;strokeWidth=3;" vertex="1" parent="XgYpCmmkQ7SpW7V8VuAg-11">
          <mxGeometry x="160" width="80" height="81" as="geometry">
            <mxRectangle width="80" height="81" as="alternateBounds" />
          </mxGeometry>
        </mxCell>
        <mxCell id="XgYpCmmkQ7SpW7V8VuAg-17" style="connectable=0;recursiveResize=0;strokeColor=inherit;fillColor=none;align=center;whiteSpace=wrap;html=1;strokeWidth=3;" vertex="1" parent="XgYpCmmkQ7SpW7V8VuAg-11">
          <mxGeometry x="240" width="80" height="81" as="geometry">
            <mxRectangle width="80" height="81" as="alternateBounds" />
          </mxGeometry>
        </mxCell>
        <mxCell id="XgYpCmmkQ7SpW7V8VuAg-28" value="&lt;b&gt;&lt;font&gt;0&lt;/font&gt;&lt;/b&gt;" style="text;html=1;align=center;verticalAlign=middle;resizable=0;points=[];autosize=1;strokeColor=none;fillColor=none;fontSize=20;" vertex="1" parent="1">
          <mxGeometry x="451" y="205" width="30" height="37" as="geometry" />
        </mxCell>
        <mxCell id="XgYpCmmkQ7SpW7V8VuAg-30" value="&lt;b&gt;&lt;font&gt;1&lt;/font&gt;&lt;/b&gt;" style="text;html=1;align=center;verticalAlign=middle;resizable=0;points=[];autosize=1;strokeColor=none;fillColor=none;fontSize=20;" vertex="1" parent="1">
          <mxGeometry x="531" y="205" width="30" height="37" as="geometry" />
        </mxCell>
        <mxCell id="XgYpCmmkQ7SpW7V8VuAg-31" value="&lt;b&gt;&lt;font&gt;3&lt;/font&gt;&lt;/b&gt;" style="text;html=1;align=center;verticalAlign=middle;resizable=0;points=[];autosize=1;strokeColor=none;fillColor=none;fontSize=20;" vertex="1" parent="1">
          <mxGeometry x="611" y="205" width="30" height="37" as="geometry" />
        </mxCell>
        <mxCell id="XgYpCmmkQ7SpW7V8VuAg-32" value="&lt;b&gt;&lt;font&gt;2&lt;/font&gt;&lt;/b&gt;" style="text;html=1;align=center;verticalAlign=middle;resizable=0;points=[];autosize=1;strokeColor=none;fillColor=none;fontSize=20;" vertex="1" parent="1">
          <mxGeometry x="691" y="205" width="30" height="37" as="geometry" />
        </mxCell>
        <mxCell id="XgYpCmmkQ7SpW7V8VuAg-33" value="&lt;b&gt;&lt;font&gt;4&lt;/font&gt;&lt;/b&gt;" style="text;html=1;align=center;verticalAlign=middle;resizable=0;points=[];autosize=1;strokeColor=none;fillColor=none;fontSize=20;" vertex="1" parent="1">
          <mxGeometry x="451" y="286" width="30" height="37" as="geometry" />
        </mxCell>
        <mxCell id="XgYpCmmkQ7SpW7V8VuAg-34" value="&lt;b&gt;&lt;font&gt;5&lt;/font&gt;&lt;/b&gt;" style="text;html=1;align=center;verticalAlign=middle;resizable=0;points=[];autosize=1;strokeColor=none;fillColor=none;fontSize=20;" vertex="1" parent="1">
          <mxGeometry x="531" y="286" width="30" height="37" as="geometry" />
        </mxCell>
        <mxCell id="XgYpCmmkQ7SpW7V8VuAg-35" value="&lt;b&gt;&lt;font&gt;7&lt;/font&gt;&lt;/b&gt;" style="text;html=1;align=center;verticalAlign=middle;resizable=0;points=[];autosize=1;strokeColor=none;fillColor=none;fontSize=20;" vertex="1" parent="1">
          <mxGeometry x="611" y="286" width="30" height="37" as="geometry" />
        </mxCell>
        <mxCell id="XgYpCmmkQ7SpW7V8VuAg-36" value="&lt;b&gt;&lt;font&gt;6&lt;/font&gt;&lt;/b&gt;" style="text;html=1;align=center;verticalAlign=middle;resizable=0;points=[];autosize=1;strokeColor=none;fillColor=none;fontSize=20;" vertex="1" parent="1">
          <mxGeometry x="691" y="286" width="30" height="37" as="geometry" />
        </mxCell>
        <mxCell id="XgYpCmmkQ7SpW7V8VuAg-37" value="&lt;b&gt;&lt;font&gt;12&lt;/font&gt;&lt;/b&gt;" style="text;html=1;align=center;verticalAlign=middle;resizable=0;points=[];autosize=1;strokeColor=none;fillColor=none;fontSize=20;" vertex="1" parent="1">
          <mxGeometry x="440" y="365" width="41" height="37" as="geometry" />
        </mxCell>
        <mxCell id="XgYpCmmkQ7SpW7V8VuAg-38" value="&lt;b&gt;&lt;font&gt;13&lt;/font&gt;&lt;/b&gt;" style="text;html=1;align=center;verticalAlign=middle;resizable=0;points=[];autosize=1;strokeColor=none;fillColor=none;fontSize=20;" vertex="1" parent="1">
          <mxGeometry x="520" y="365" width="41" height="37" as="geometry" />
        </mxCell>
        <mxCell id="XgYpCmmkQ7SpW7V8VuAg-39" value="&lt;b&gt;&lt;font&gt;15&lt;/font&gt;&lt;/b&gt;" style="text;html=1;align=center;verticalAlign=middle;resizable=0;points=[];autosize=1;strokeColor=none;fillColor=none;fontSize=20;" vertex="1" parent="1">
          <mxGeometry x="600" y="365" width="41" height="37" as="geometry" />
        </mxCell>
        <mxCell id="XgYpCmmkQ7SpW7V8VuAg-40" value="&lt;b&gt;&lt;font&gt;14&lt;/font&gt;&lt;/b&gt;" style="text;html=1;align=center;verticalAlign=middle;resizable=0;points=[];autosize=1;strokeColor=none;fillColor=none;fontSize=20;" vertex="1" parent="1">
          <mxGeometry x="680" y="365" width="41" height="37" as="geometry" />
        </mxCell>
        <mxCell id="XgYpCmmkQ7SpW7V8VuAg-41" value="&lt;b&gt;&lt;font&gt;8&lt;/font&gt;&lt;/b&gt;" style="text;html=1;align=center;verticalAlign=middle;resizable=0;points=[];autosize=1;strokeColor=none;fillColor=none;fontSize=20;" vertex="1" parent="1">
          <mxGeometry x="451" y="446" width="30" height="37" as="geometry" />
        </mxCell>
        <mxCell id="XgYpCmmkQ7SpW7V8VuAg-42" value="&lt;b&gt;&lt;font&gt;9&lt;/font&gt;&lt;/b&gt;" style="text;html=1;align=center;verticalAlign=middle;resizable=0;points=[];autosize=1;strokeColor=none;fillColor=none;fontSize=20;" vertex="1" parent="1">
          <mxGeometry x="531" y="446" width="30" height="37" as="geometry" />
        </mxCell>
        <mxCell id="XgYpCmmkQ7SpW7V8VuAg-43" value="&lt;b&gt;&lt;font&gt;11&lt;/font&gt;&lt;/b&gt;" style="text;html=1;align=center;verticalAlign=middle;resizable=0;points=[];autosize=1;strokeColor=none;fillColor=none;fontSize=20;" vertex="1" parent="1">
          <mxGeometry x="601" y="446" width="40" height="37" as="geometry" />
        </mxCell>
        <mxCell id="XgYpCmmkQ7SpW7V8VuAg-44" value="&lt;b&gt;&lt;font&gt;10&lt;/font&gt;&lt;/b&gt;" style="text;html=1;align=center;verticalAlign=middle;resizable=0;points=[];autosize=1;strokeColor=none;fillColor=none;fontSize=20;" vertex="1" parent="1">
          <mxGeometry x="680" y="446" width="41" height="37" as="geometry" />
        </mxCell>
        <mxCell id="XgYpCmmkQ7SpW7V8VuAg-45" value="" style="endArrow=none;html=1;rounded=0;strokeWidth=3;entryX=0;entryY=0;entryDx=0;entryDy=0;" edge="1" parent="1" target="XgYpCmmkQ7SpW7V8VuAg-18">
          <mxGeometry width="50" height="50" relative="1" as="geometry">
            <mxPoint x="343" y="104" as="sourcePoint" />
            <mxPoint x="396" y="125" as="targetPoint" />
          </mxGeometry>
        </mxCell>
        <mxCell id="XgYpCmmkQ7SpW7V8VuAg-47" value="&lt;b&gt;&lt;font&gt;d clk&lt;/font&gt;&lt;/b&gt;" style="text;html=1;align=center;verticalAlign=middle;resizable=0;points=[];autosize=1;strokeColor=none;fillColor=none;fontSize=20;rotation=-45;" vertex="1" parent="1">
          <mxGeometry x="319" y="140" width="65" height="37" as="geometry" />
        </mxCell>
        <mxCell id="XgYpCmmkQ7SpW7V8VuAg-48" value="&lt;b&gt;&lt;font&gt;set reset&lt;/font&gt;&lt;/b&gt;" style="text;html=1;align=center;verticalAlign=middle;resizable=0;points=[];autosize=1;strokeColor=none;fillColor=none;fontSize=20;rotation=-45;" vertex="1" parent="1">
          <mxGeometry x="358" y="81" width="101" height="37" as="geometry" />
        </mxCell>
        <mxCell id="XgYpCmmkQ7SpW7V8VuAg-49" value="" style="childLayout=tableLayout;recursiveResize=0;shadow=0;fillColor=none;strokeWidth=3;" vertex="1" parent="1">
          <mxGeometry x="415" y="662" width="320" height="322" as="geometry" />
        </mxCell>
        <mxCell id="XgYpCmmkQ7SpW7V8VuAg-50" style="shape=tableRow;horizontal=0;startSize=0;swimlaneHead=0;swimlaneBody=0;top=0;left=0;bottom=0;right=0;dropTarget=0;collapsible=0;recursiveResize=0;expand=0;fontStyle=0;fillColor=none;strokeColor=inherit;strokeWidth=3;" vertex="1" parent="XgYpCmmkQ7SpW7V8VuAg-49">
          <mxGeometry width="320" height="81" as="geometry" />
        </mxCell>
        <mxCell id="XgYpCmmkQ7SpW7V8VuAg-51" style="connectable=0;recursiveResize=0;strokeColor=inherit;fillColor=none;align=center;whiteSpace=wrap;html=1;strokeWidth=3;" vertex="1" parent="XgYpCmmkQ7SpW7V8VuAg-50">
          <mxGeometry width="80" height="81" as="geometry">
            <mxRectangle width="80" height="81" as="alternateBounds" />
          </mxGeometry>
        </mxCell>
        <mxCell id="XgYpCmmkQ7SpW7V8VuAg-52" style="connectable=0;recursiveResize=0;strokeColor=inherit;fillColor=none;align=center;whiteSpace=wrap;html=1;strokeWidth=3;" vertex="1" parent="XgYpCmmkQ7SpW7V8VuAg-50">
          <mxGeometry x="80" width="80" height="81" as="geometry">
            <mxRectangle width="80" height="81" as="alternateBounds" />
          </mxGeometry>
        </mxCell>
        <mxCell id="XgYpCmmkQ7SpW7V8VuAg-53" style="connectable=0;recursiveResize=0;strokeColor=inherit;fillColor=none;align=center;whiteSpace=wrap;html=1;strokeWidth=3;" vertex="1" parent="XgYpCmmkQ7SpW7V8VuAg-50">
          <mxGeometry x="160" width="80" height="81" as="geometry">
            <mxRectangle width="80" height="81" as="alternateBounds" />
          </mxGeometry>
        </mxCell>
        <mxCell id="XgYpCmmkQ7SpW7V8VuAg-54" style="connectable=0;recursiveResize=0;strokeColor=inherit;fillColor=none;align=center;whiteSpace=wrap;html=1;strokeWidth=3;" vertex="1" parent="XgYpCmmkQ7SpW7V8VuAg-50">
          <mxGeometry x="240" width="80" height="81" as="geometry">
            <mxRectangle width="80" height="81" as="alternateBounds" />
          </mxGeometry>
        </mxCell>
        <mxCell id="XgYpCmmkQ7SpW7V8VuAg-55" value="" style="shape=tableRow;horizontal=0;startSize=0;swimlaneHead=0;swimlaneBody=0;top=0;left=0;bottom=0;right=0;dropTarget=0;collapsible=0;recursiveResize=0;expand=0;fontStyle=0;fillColor=none;strokeColor=inherit;strokeWidth=3;" vertex="1" parent="XgYpCmmkQ7SpW7V8VuAg-49">
          <mxGeometry y="81" width="320" height="81" as="geometry" />
        </mxCell>
        <mxCell id="XgYpCmmkQ7SpW7V8VuAg-56" value="" style="connectable=0;recursiveResize=0;strokeColor=inherit;fillColor=none;align=center;whiteSpace=wrap;html=1;strokeWidth=3;" vertex="1" parent="XgYpCmmkQ7SpW7V8VuAg-55">
          <mxGeometry width="80" height="81" as="geometry">
            <mxRectangle width="80" height="81" as="alternateBounds" />
          </mxGeometry>
        </mxCell>
        <mxCell id="XgYpCmmkQ7SpW7V8VuAg-57" value="" style="connectable=0;recursiveResize=0;strokeColor=inherit;fillColor=none;align=center;whiteSpace=wrap;html=1;strokeWidth=3;" vertex="1" parent="XgYpCmmkQ7SpW7V8VuAg-55">
          <mxGeometry x="80" width="80" height="81" as="geometry">
            <mxRectangle width="80" height="81" as="alternateBounds" />
          </mxGeometry>
        </mxCell>
        <mxCell id="XgYpCmmkQ7SpW7V8VuAg-58" value="" style="connectable=0;recursiveResize=0;strokeColor=inherit;fillColor=none;align=center;whiteSpace=wrap;html=1;strokeWidth=3;" vertex="1" parent="XgYpCmmkQ7SpW7V8VuAg-55">
          <mxGeometry x="160" width="80" height="81" as="geometry">
            <mxRectangle width="80" height="81" as="alternateBounds" />
          </mxGeometry>
        </mxCell>
        <mxCell id="XgYpCmmkQ7SpW7V8VuAg-59" style="connectable=0;recursiveResize=0;strokeColor=inherit;fillColor=none;align=center;whiteSpace=wrap;html=1;strokeWidth=3;" vertex="1" parent="XgYpCmmkQ7SpW7V8VuAg-55">
          <mxGeometry x="240" width="80" height="81" as="geometry">
            <mxRectangle width="80" height="81" as="alternateBounds" />
          </mxGeometry>
        </mxCell>
        <mxCell id="XgYpCmmkQ7SpW7V8VuAg-60" style="shape=tableRow;horizontal=0;startSize=0;swimlaneHead=0;swimlaneBody=0;top=0;left=0;bottom=0;right=0;dropTarget=0;collapsible=0;recursiveResize=0;expand=0;fontStyle=0;fillColor=none;strokeColor=inherit;strokeWidth=3;" vertex="1" parent="XgYpCmmkQ7SpW7V8VuAg-49">
          <mxGeometry y="162" width="320" height="79" as="geometry" />
        </mxCell>
        <mxCell id="XgYpCmmkQ7SpW7V8VuAg-61" value="" style="connectable=0;recursiveResize=0;strokeColor=inherit;fillColor=none;align=center;whiteSpace=wrap;html=1;strokeWidth=3;" vertex="1" parent="XgYpCmmkQ7SpW7V8VuAg-60">
          <mxGeometry width="80" height="79" as="geometry">
            <mxRectangle width="80" height="79" as="alternateBounds" />
          </mxGeometry>
        </mxCell>
        <mxCell id="XgYpCmmkQ7SpW7V8VuAg-62" value="" style="connectable=0;recursiveResize=0;strokeColor=inherit;fillColor=none;align=center;whiteSpace=wrap;html=1;strokeWidth=3;" vertex="1" parent="XgYpCmmkQ7SpW7V8VuAg-60">
          <mxGeometry x="80" width="80" height="79" as="geometry">
            <mxRectangle width="80" height="79" as="alternateBounds" />
          </mxGeometry>
        </mxCell>
        <mxCell id="XgYpCmmkQ7SpW7V8VuAg-63" value="" style="connectable=0;recursiveResize=0;strokeColor=inherit;fillColor=none;align=center;whiteSpace=wrap;html=1;strokeWidth=3;" vertex="1" parent="XgYpCmmkQ7SpW7V8VuAg-60">
          <mxGeometry x="160" width="80" height="79" as="geometry">
            <mxRectangle width="80" height="79" as="alternateBounds" />
          </mxGeometry>
        </mxCell>
        <mxCell id="XgYpCmmkQ7SpW7V8VuAg-64" style="connectable=0;recursiveResize=0;strokeColor=inherit;fillColor=none;align=center;whiteSpace=wrap;html=1;strokeWidth=3;" vertex="1" parent="XgYpCmmkQ7SpW7V8VuAg-60">
          <mxGeometry x="240" width="80" height="79" as="geometry">
            <mxRectangle width="80" height="79" as="alternateBounds" />
          </mxGeometry>
        </mxCell>
        <mxCell id="XgYpCmmkQ7SpW7V8VuAg-65" style="shape=tableRow;horizontal=0;startSize=0;swimlaneHead=0;swimlaneBody=0;top=0;left=0;bottom=0;right=0;dropTarget=0;collapsible=0;recursiveResize=0;expand=0;fontStyle=0;fillColor=none;strokeColor=inherit;strokeWidth=3;" vertex="1" parent="XgYpCmmkQ7SpW7V8VuAg-49">
          <mxGeometry y="241" width="320" height="81" as="geometry" />
        </mxCell>
        <mxCell id="XgYpCmmkQ7SpW7V8VuAg-66" value="" style="connectable=0;recursiveResize=0;strokeColor=inherit;fillColor=none;align=center;whiteSpace=wrap;html=1;strokeWidth=3;" vertex="1" parent="XgYpCmmkQ7SpW7V8VuAg-65">
          <mxGeometry width="80" height="81" as="geometry">
            <mxRectangle width="80" height="81" as="alternateBounds" />
          </mxGeometry>
        </mxCell>
        <mxCell id="XgYpCmmkQ7SpW7V8VuAg-67" value="" style="connectable=0;recursiveResize=0;strokeColor=inherit;fillColor=none;align=center;whiteSpace=wrap;html=1;strokeWidth=3;" vertex="1" parent="XgYpCmmkQ7SpW7V8VuAg-65">
          <mxGeometry x="80" width="80" height="81" as="geometry">
            <mxRectangle width="80" height="81" as="alternateBounds" />
          </mxGeometry>
        </mxCell>
        <mxCell id="XgYpCmmkQ7SpW7V8VuAg-68" value="" style="connectable=0;recursiveResize=0;strokeColor=inherit;fillColor=none;align=center;whiteSpace=wrap;html=1;strokeWidth=3;" vertex="1" parent="XgYpCmmkQ7SpW7V8VuAg-65">
          <mxGeometry x="160" width="80" height="81" as="geometry">
            <mxRectangle width="80" height="81" as="alternateBounds" />
          </mxGeometry>
        </mxCell>
        <mxCell id="XgYpCmmkQ7SpW7V8VuAg-69" style="connectable=0;recursiveResize=0;strokeColor=inherit;fillColor=none;align=center;whiteSpace=wrap;html=1;strokeWidth=3;" vertex="1" parent="XgYpCmmkQ7SpW7V8VuAg-65">
          <mxGeometry x="240" width="80" height="81" as="geometry">
            <mxRectangle width="80" height="81" as="alternateBounds" />
          </mxGeometry>
        </mxCell>
        <mxCell id="XgYpCmmkQ7SpW7V8VuAg-70" value="&lt;b&gt;&lt;font&gt;0&lt;/font&gt;&lt;/b&gt;" style="text;html=1;align=center;verticalAlign=middle;resizable=0;points=[];autosize=1;strokeColor=none;fillColor=none;fontSize=20;" vertex="1" parent="1">
          <mxGeometry x="466" y="707" width="30" height="37" as="geometry" />
        </mxCell>
        <mxCell id="XgYpCmmkQ7SpW7V8VuAg-71" value="&lt;b&gt;&lt;font&gt;1&lt;/font&gt;&lt;/b&gt;" style="text;html=1;align=center;verticalAlign=middle;resizable=0;points=[];autosize=1;strokeColor=none;fillColor=none;fontSize=20;" vertex="1" parent="1">
          <mxGeometry x="546" y="707" width="30" height="37" as="geometry" />
        </mxCell>
        <mxCell id="XgYpCmmkQ7SpW7V8VuAg-72" value="&lt;b&gt;&lt;font&gt;3&lt;/font&gt;&lt;/b&gt;" style="text;html=1;align=center;verticalAlign=middle;resizable=0;points=[];autosize=1;strokeColor=none;fillColor=none;fontSize=20;" vertex="1" parent="1">
          <mxGeometry x="626" y="707" width="30" height="37" as="geometry" />
        </mxCell>
        <mxCell id="XgYpCmmkQ7SpW7V8VuAg-73" value="&lt;b&gt;&lt;font&gt;2&lt;/font&gt;&lt;/b&gt;" style="text;html=1;align=center;verticalAlign=middle;resizable=0;points=[];autosize=1;strokeColor=none;fillColor=none;fontSize=20;" vertex="1" parent="1">
          <mxGeometry x="706" y="707" width="30" height="37" as="geometry" />
        </mxCell>
        <mxCell id="XgYpCmmkQ7SpW7V8VuAg-74" value="&lt;b&gt;&lt;font&gt;4&lt;/font&gt;&lt;/b&gt;" style="text;html=1;align=center;verticalAlign=middle;resizable=0;points=[];autosize=1;strokeColor=none;fillColor=none;fontSize=20;" vertex="1" parent="1">
          <mxGeometry x="466" y="788" width="30" height="37" as="geometry" />
        </mxCell>
        <mxCell id="XgYpCmmkQ7SpW7V8VuAg-75" value="&lt;b&gt;&lt;font&gt;5&lt;/font&gt;&lt;/b&gt;" style="text;html=1;align=center;verticalAlign=middle;resizable=0;points=[];autosize=1;strokeColor=none;fillColor=none;fontSize=20;" vertex="1" parent="1">
          <mxGeometry x="546" y="788" width="30" height="37" as="geometry" />
        </mxCell>
        <mxCell id="XgYpCmmkQ7SpW7V8VuAg-76" value="&lt;b&gt;&lt;font&gt;7&lt;/font&gt;&lt;/b&gt;" style="text;html=1;align=center;verticalAlign=middle;resizable=0;points=[];autosize=1;strokeColor=none;fillColor=none;fontSize=20;" vertex="1" parent="1">
          <mxGeometry x="626" y="788" width="30" height="37" as="geometry" />
        </mxCell>
        <mxCell id="XgYpCmmkQ7SpW7V8VuAg-77" value="&lt;b&gt;&lt;font&gt;6&lt;/font&gt;&lt;/b&gt;" style="text;html=1;align=center;verticalAlign=middle;resizable=0;points=[];autosize=1;strokeColor=none;fillColor=none;fontSize=20;" vertex="1" parent="1">
          <mxGeometry x="706" y="788" width="30" height="37" as="geometry" />
        </mxCell>
        <mxCell id="XgYpCmmkQ7SpW7V8VuAg-78" value="&lt;b&gt;&lt;font&gt;12&lt;/font&gt;&lt;/b&gt;" style="text;html=1;align=center;verticalAlign=middle;resizable=0;points=[];autosize=1;strokeColor=none;fillColor=none;fontSize=20;" vertex="1" parent="1">
          <mxGeometry x="455" y="867" width="41" height="37" as="geometry" />
        </mxCell>
        <mxCell id="XgYpCmmkQ7SpW7V8VuAg-79" value="&lt;b&gt;&lt;font&gt;13&lt;/font&gt;&lt;/b&gt;" style="text;html=1;align=center;verticalAlign=middle;resizable=0;points=[];autosize=1;strokeColor=none;fillColor=none;fontSize=20;" vertex="1" parent="1">
          <mxGeometry x="535" y="867" width="41" height="37" as="geometry" />
        </mxCell>
        <mxCell id="XgYpCmmkQ7SpW7V8VuAg-80" value="&lt;b&gt;&lt;font&gt;15&lt;/font&gt;&lt;/b&gt;" style="text;html=1;align=center;verticalAlign=middle;resizable=0;points=[];autosize=1;strokeColor=none;fillColor=none;fontSize=20;" vertex="1" parent="1">
          <mxGeometry x="615" y="867" width="41" height="37" as="geometry" />
        </mxCell>
        <mxCell id="XgYpCmmkQ7SpW7V8VuAg-81" value="&lt;b&gt;&lt;font&gt;14&lt;/font&gt;&lt;/b&gt;" style="text;html=1;align=center;verticalAlign=middle;resizable=0;points=[];autosize=1;strokeColor=none;fillColor=none;fontSize=20;" vertex="1" parent="1">
          <mxGeometry x="695" y="867" width="41" height="37" as="geometry" />
        </mxCell>
        <mxCell id="XgYpCmmkQ7SpW7V8VuAg-82" value="&lt;b&gt;&lt;font&gt;8&lt;/font&gt;&lt;/b&gt;" style="text;html=1;align=center;verticalAlign=middle;resizable=0;points=[];autosize=1;strokeColor=none;fillColor=none;fontSize=20;" vertex="1" parent="1">
          <mxGeometry x="466" y="948" width="30" height="37" as="geometry" />
        </mxCell>
        <mxCell id="XgYpCmmkQ7SpW7V8VuAg-83" value="&lt;b&gt;&lt;font&gt;9&lt;/font&gt;&lt;/b&gt;" style="text;html=1;align=center;verticalAlign=middle;resizable=0;points=[];autosize=1;strokeColor=none;fillColor=none;fontSize=20;" vertex="1" parent="1">
          <mxGeometry x="546" y="948" width="30" height="37" as="geometry" />
        </mxCell>
        <mxCell id="XgYpCmmkQ7SpW7V8VuAg-84" value="&lt;b&gt;&lt;font&gt;11&lt;/font&gt;&lt;/b&gt;" style="text;html=1;align=center;verticalAlign=middle;resizable=0;points=[];autosize=1;strokeColor=none;fillColor=none;fontSize=20;" vertex="1" parent="1">
          <mxGeometry x="616" y="948" width="40" height="37" as="geometry" />
        </mxCell>
        <mxCell id="XgYpCmmkQ7SpW7V8VuAg-85" value="&lt;b&gt;&lt;font&gt;10&lt;/font&gt;&lt;/b&gt;" style="text;html=1;align=center;verticalAlign=middle;resizable=0;points=[];autosize=1;strokeColor=none;fillColor=none;fontSize=20;" vertex="1" parent="1">
          <mxGeometry x="695" y="948" width="41" height="37" as="geometry" />
        </mxCell>
        <mxCell id="XgYpCmmkQ7SpW7V8VuAg-86" value="" style="endArrow=none;html=1;rounded=0;strokeWidth=3;entryX=0;entryY=0;entryDx=0;entryDy=0;" edge="1" parent="1" target="XgYpCmmkQ7SpW7V8VuAg-50">
          <mxGeometry width="50" height="50" relative="1" as="geometry">
            <mxPoint x="358" y="606" as="sourcePoint" />
            <mxPoint x="411" y="627" as="targetPoint" />
          </mxGeometry>
        </mxCell>
      </root>
    </mxGraphModel>
  </diagram>
</mxfile>
